<svg width="7467" height="2000" viewBox="0 0 7467 2000" fill="none" xmlns="http://www.w3.org/2000/svg">
    <path d="M3140 857C3140 915 3120 963.333 3080 1002C3040.67 1040 2980.33 1059 2899 1059H2765V1350H2674V653H2899C2977.67 653 3037.33 672 3078 710C3119.33 748 3140 797 3140 857ZM2899 984C2949.67 984 2987 973 3011 951C3035 929 3047 897.667 3047 857C3047 771 2997.67 728 2899 728H2765V984H2899ZM3344.1 610V1350H3253.1V610H3344.1ZM3465.2 1074C3465.2 1018 3476.53 969 3499.2 927C3521.86 884.333 3552.86 851.333 3592.2 828C3632.2 804.667 3676.53 793 3725.2 793C3773.2 793 3814.86 803.333 3850.2 824C3885.53 844.667 3911.86 870.667 3929.2 902V802H4021.2V1350H3929.2V1248C3911.2 1280 3884.2 1306.67 3848.2 1328C3812.86 1348.67 3771.53 1359 3724.2 1359C3675.53 1359 3631.53 1347 3592.2 1323C3552.86 1299 3521.86 1265.33 3499.2 1222C3476.53 1178.67 3465.2 1129.33 3465.2 1074ZM3929.2 1075C3929.2 1033.67 3920.86 997.667 3904.2 967C3887.53 936.333 3864.86 913 3836.2 897C3808.2 880.333 3777.2 872 3743.2 872C3709.2 872 3678.2 880 3650.2 896C3622.2 912 3599.86 935.333 3583.2 966C3566.53 996.667 3558.2 1032.67 3558.2 1074C3558.2 1116 3566.53 1152.67 3583.2 1184C3599.86 1214.67 3622.2 1238.33 3650.2 1255C3678.2 1271 3709.2 1279 3743.2 1279C3777.2 1279 3808.2 1271 3836.2 1255C3864.86 1238.33 3887.53 1214.67 3904.2 1184C3920.86 1152.67 3929.2 1116.33 3929.2 1075ZM4646.98 802L4316.98 1608H4222.98L4330.98 1344L4109.98 802H4210.98L4382.98 1246L4552.98 802H4646.98ZM4829.45 891C4845.45 859.667 4868.12 835.333 4897.45 818C4927.45 800.667 4963.79 792 5006.45 792V886H4982.45C4880.45 886 4829.45 941.333 4829.45 1052V1350H4738.45V802H4829.45V891Z" fill="#F8F2F4"/>
    <path d="M5460.5 991C5485.83 995 5508.83 1005.33 5529.5 1022C5550.83 1038.67 5567.5 1059.33 5579.5 1084C5592.17 1108.67 5598.5 1135 5598.5 1163C5598.5 1198.33 5589.5 1230.33 5571.5 1259C5553.5 1287 5527.17 1309.33 5492.5 1326C5458.5 1342 5418.17 1350 5371.5 1350H5111.5V653H5361.5C5408.83 653 5449.17 661 5482.5 677C5515.83 692.333 5540.83 713.333 5557.5 740C5574.17 766.667 5582.5 796.667 5582.5 830C5582.5 871.333 5571.17 905.667 5548.5 933C5526.5 959.667 5497.17 979 5460.5 991ZM5202.5 954H5355.5C5398.17 954 5431.17 944 5454.5 924C5477.83 904 5489.5 876.333 5489.5 841C5489.5 805.667 5477.83 778 5454.5 758C5431.17 738 5397.5 728 5353.5 728H5202.5V954ZM5363.5 1275C5408.83 1275 5444.17 1264.33 5469.5 1243C5494.83 1221.67 5507.5 1192 5507.5 1154C5507.5 1115.33 5494.17 1085 5467.5 1063C5440.83 1040.33 5405.17 1029 5360.5 1029H5202.5V1275H5363.5ZM5690.78 1074C5690.78 1018 5702.11 969 5724.78 927C5747.45 884.333 5778.45 851.333 5817.78 828C5857.78 804.667 5902.11 793 5950.78 793C5998.78 793 6040.45 803.333 6075.78 824C6111.11 844.667 6137.45 870.667 6154.78 902V802H6246.78V1350H6154.78V1248C6136.78 1280 6109.78 1306.67 6073.78 1328C6038.45 1348.67 5997.11 1359 5949.78 1359C5901.11 1359 5857.11 1347 5817.78 1323C5778.45 1299 5747.45 1265.33 5724.78 1222C5702.11 1178.67 5690.78 1129.33 5690.78 1074ZM6154.78 1075C6154.78 1033.67 6146.45 997.667 6129.78 967C6113.11 936.333 6090.45 913 6061.78 897C6033.78 880.333 6002.78 872 5968.78 872C5934.78 872 5903.78 880 5875.78 896C5847.78 912 5825.45 935.333 5808.78 966C5792.11 996.667 5783.78 1032.67 5783.78 1074C5783.78 1116 5792.11 1152.67 5808.78 1184C5825.45 1214.67 5847.78 1238.33 5875.78 1255C5903.78 1271 5934.78 1279 5968.78 1279C6002.78 1279 6033.78 1271 6061.78 1255C6090.45 1238.33 6113.11 1214.67 6129.78 1184C6146.45 1152.67 6154.78 1116.33 6154.78 1075ZM6594.56 1359C6552.56 1359 6514.9 1352 6481.56 1338C6448.23 1323.33 6421.9 1303.33 6402.56 1278C6383.23 1252 6372.56 1222.33 6370.56 1189H6464.56C6467.23 1216.33 6479.9 1238.67 6502.56 1256C6525.9 1273.33 6556.23 1282 6593.56 1282C6628.23 1282 6655.56 1274.33 6675.56 1259C6695.56 1243.67 6705.56 1224.33 6705.56 1201C6705.56 1177 6694.9 1159.33 6673.56 1148C6652.23 1136 6619.23 1124.33 6574.56 1113C6533.9 1102.33 6500.56 1091.67 6474.56 1081C6449.23 1069.67 6427.23 1053.33 6408.56 1032C6390.56 1010 6381.56 981.333 6381.56 946C6381.56 918 6389.9 892.333 6406.56 869C6423.23 845.667 6446.9 827.333 6477.56 814C6508.23 800 6543.23 793 6582.56 793C6643.23 793 6692.23 808.333 6729.56 839C6766.9 869.667 6786.9 911.667 6789.56 965H6698.56C6696.56 936.333 6684.9 913.333 6663.56 896C6642.9 878.667 6614.9 870 6579.56 870C6546.9 870 6520.9 877 6501.56 891C6482.23 905 6472.56 923.333 6472.56 946C6472.56 964 6478.23 979 6489.56 991C6501.56 1002.33 6516.23 1011.67 6533.56 1019C6551.56 1025.67 6576.23 1033.33 6607.56 1042C6646.9 1052.67 6678.9 1063.33 6703.56 1074C6728.23 1084 6749.23 1099.33 6766.56 1120C6784.56 1140.67 6793.9 1167.67 6794.56 1201C6794.56 1231 6786.23 1258 6769.56 1282C6752.9 1306 6729.23 1325 6698.56 1339C6668.56 1352.33 6633.9 1359 6594.56 1359ZM7423.02 1055C7423.02 1072.33 7422.02 1090.67 7420.02 1110H6982.02C6985.36 1164 7003.69 1206.33 7037.02 1237C7071.02 1267 7112.02 1282 7160.02 1282C7199.36 1282 7232.02 1273 7258.02 1255C7284.69 1236.33 7303.36 1211.67 7314.02 1181H7412.02C7397.36 1233.67 7368.02 1276.67 7324.02 1310C7280.02 1342.67 7225.36 1359 7160.02 1359C7108.02 1359 7061.36 1347.33 7020.02 1324C6979.36 1300.67 6947.36 1267.67 6924.02 1225C6900.69 1181.67 6889.02 1131.67 6889.02 1075C6889.02 1018.33 6900.36 968.667 6923.02 926C6945.69 883.333 6977.36 850.667 7018.02 828C7059.36 804.667 7106.69 793 7160.02 793C7212.02 793 7258.02 804.333 7298.02 827C7338.02 849.667 7368.69 881 7390.02 921C7412.02 960.333 7423.02 1005 7423.02 1055ZM7329.02 1036C7329.02 1001.33 7321.36 971.667 7306.02 947C7290.69 921.667 7269.69 902.667 7243.02 890C7217.02 876.667 7188.02 870 7156.02 870C7110.02 870 7070.69 884.667 7038.02 914C7006.02 943.333 6987.69 984 6983.02 1036H7329.02Z" fill="#3A81E4"/>
    <path d="M999.996 250C999.996 791.786 569.141 1232.94 31.3766 1249.52C142.219 1681.07 533.863 2000 999.996 2000C1010.5 2000 1020.96 1999.84 1031.38 1999.52C1010.89 1919.76 999.996 1836.15 999.996 1750C999.996 1208.21 1430.85 767.059 1968.62 750.483C1857.77 318.931 1466.13 0 999.996 0C989.498 0 979.037 0.161786 968.616 0.483001C989.102 80.2425 999.996 163.849 999.996 250Z" fill="#F8F2F4"/>
    <path d="M1999.99 1002.7C1587.27 1002.7 1252.69 1337.28 1252.69 1750C1252.69 1822.74 1263.09 1893.06 1282.47 1959.55C1696.38 1837.89 1998.8 1455.7 1999.99 1002.7Z" fill="#F8F2F4"/>
    <path d="M747.301 250C747.301 662.724 412.723 997.302 0 997.304C1.19534 544.296 303.609 162.106 717.523 40.4527C736.907 106.938 747.301 177.255 747.301 250Z" fill="#F8F2F4"/>
</svg>
